<?xml version="1.0" encoding="utf-8"?>
<!-- Generator: Adobe Illustrator 21.0.2, SVG Export Plug-In . SVG Version: 6.00 Build 0)  -->
<!DOCTYPE svg PUBLIC "-//W3C//DTD SVG 1.1//EN" "http://www.w3.org/Graphics/SVG/1.1/DTD/svg11.dtd">
<svg version="1.1" id="Ebene_1" xmlns="http://www.w3.org/2000/svg" xmlns:xlink="http://www.w3.org/1999/xlink" x="0px" y="0px"
	 viewBox="0 0 581.3 171.3" style="enable-background:new 0 0 581.3 171.3;" xml:space="preserve">
<style type="text/css">
	.st0{fill:#C42322;}
</style>
<g>
	<g>
		<path d="M102.6,145.5c-3.6,0-6-3.3-6-7.7c0-4.4,2.5-7.7,6.1-7.7c2,0,3.6,0.8,4.8,2.4l-1.3,1c-1-1.3-1.9-1.9-3.5-1.9
			c-2.6,0-4.4,2.5-4.4,6.2c0,3.6,1.9,6.2,4.4,6.2c1.6,0,2.7-0.7,3.7-2l1.2,1C106.3,144.5,104.7,145.5,102.6,145.5z"/>
		<path d="M121.1,145.3l-1.3-3.8h-6.2l-1.3,3.8h-1.7l5.2-14.9h1.8l5.2,14.9H121.1z M117.7,135.1c-0.3-1-0.8-2.3-0.9-2.9
			c-0.1,0.6-0.6,1.9-0.9,3l-1.6,4.9h5.1L117.7,135.1z"/>
	</g>
	<g>
		<path d="M130.7,131.9v13.4h-1.7v-13.4h-4.4v-1.5h10.4v1.5H130.7z"/>
		<path d="M139.4,145.3v-14.9h9v1.5h-7.3v4.7h4.3v1.5h-4.3v5.7h7.7v1.5H139.4z"/>
		<path d="M160.2,138.8l3.3,6.5h-1.9l-3.2-6.3h-3.5v6.3h-1.7v-14.9h5.9c2.6,0,4.6,1.3,4.6,4.2C163.7,136.9,162.3,138.4,160.2,138.8z
			 M159,131.9h-4.2v5.6h4c2.2,0,3.3-0.9,3.3-2.8C162.1,132.9,161,131.9,159,131.9z"/>
		<path d="M168.4,145.3v-14.9h1.7v14.9H168.4z"/>
		<path d="M184.6,145.3l-6.5-10.2c-0.3-0.5-0.9-1.5-1.1-1.9v1v11.1h-1.6v-14.9h1.6l6.5,10.4c0.3,0.5,0.9,1.5,1.1,1.9v-1v-11.2h1.6
			v14.9H184.6z"/>
		<path d="M196.7,145.5c-3.6,0-6-3.3-6-7.7c0-4.4,2.5-7.7,6.1-7.7c2,0,3.6,0.8,4.8,2.4l-1.3,1c-1-1.3-1.9-1.9-3.5-1.9
			c-2.6,0-4.4,2.5-4.4,6.2c0,3.6,1.9,6.2,4.4,6.2s3.9-1.5,3.9-4.5v-0.1h-2.7v-1.5h4.3v1.4C202.2,143.5,199.9,145.5,196.7,145.5z"/>
		<path d="M218.7,145.5c-3.6,0-5.4-2.2-5.4-6.3v-8.9h1.7v8.8c0,3.2,1.2,4.8,3.8,4.8s3.6-1.6,3.6-4.8v-8.9h1.7v8.8
			C224.1,143.4,222.3,145.5,218.7,145.5z"/>
		<path d="M238.3,145.3l-6.5-10.2c-0.3-0.5-0.9-1.5-1.1-1.9v1v11.1h-1.6v-14.9h1.6l6.5,10.4c0.3,0.5,0.9,1.5,1.1,1.9v-1v-11.2h1.6
			v14.9H238.3z"/>
		<path d="M248.7,145.3h-3.6v-14.9h3.9c3.9,0,6.8,2.2,6.8,7.3C255.8,143.2,252.7,145.3,248.7,145.3z M248.9,131.9h-2.2v11.9h2.2
			c3.2,0,5.2-1.7,5.2-6C254.2,134,252.3,131.9,248.9,131.9z"/>
	</g>
	<g>
		<path d="M102.6,171.1c-3.6,0-6-3.3-6-7.7c0-4.4,2.5-7.7,6.1-7.7c2,0,3.6,0.8,4.8,2.4l-1.3,1c-1-1.3-1.9-1.9-3.5-1.9
			c-2.6,0-4.4,2.5-4.4,6.2c0,3.6,1.9,6.2,4.4,6.2s3.9-1.5,3.9-4.5V165h-2.7v-1.5h4.3v1.4C108.1,169,105.7,171.1,102.6,171.1z"/>
		<path d="M121.7,170.9l-1.3-3.8h-6.2l-1.3,3.8h-1.7l5.2-14.9h1.8l5.2,14.9H121.7z M118.3,160.7c-0.3-1-0.8-2.3-0.9-2.9
			c-0.1,0.6-0.6,1.9-0.9,3l-1.6,4.9h5.1L118.3,160.7z"/>
		<path d="M131.7,171.1c-2,0-3.8-0.9-5-2.1l1.1-1.2c1.1,1.1,2.4,1.8,4,1.8c2,0,3.2-1,3.2-2.6c0-1.4-0.8-2.2-3.6-3.2
			c-3.2-1.2-4.3-2.2-4.3-4.3c0-2.4,1.9-3.8,4.7-3.8c2,0,3.3,0.6,4.5,1.6l-1.1,1.3c-1.1-0.9-2.1-1.4-3.6-1.4c-2,0-2.9,1-2.9,2.2
			c0,1.2,0.6,1.9,3.5,3c3.3,1.2,4.3,2.3,4.3,4.5C136.7,169.3,134.8,171.1,131.7,171.1z"/>
		<path d="M146.2,157.5v13.4h-1.7v-13.4h-4.4V156h10.4v1.5H146.2z"/>
	</g>
	<g>
		<path d="M162,164.4l3.3,6.5h-1.9l-3.2-6.3h-3.5v6.3H155V156h5.9c2.6,0,4.6,1.3,4.6,4.2C165.5,162.5,164.1,164,162,164.4z
			 M160.8,157.5h-4.2v5.6h4c2.2,0,3.3-0.9,3.3-2.8C163.9,158.4,162.8,157.5,160.8,157.5z"/>
	</g>
	<g>
		<path d="M175.3,171.1c-3.7,0-6.2-3.2-6.2-7.7c0-4.5,2.5-7.7,6.2-7.7c3.7,0,6.2,3.2,6.2,7.7C181.5,167.9,179,171.1,175.3,171.1z
			 M175.3,157.2c-2.6,0-4.5,2.4-4.5,6.2s2,6.2,4.6,6.2c2.6,0,4.5-2.4,4.5-6.2S177.9,157.2,175.3,157.2z"/>
		<path d="M195.3,170.9l-6.5-10.2c-0.3-0.5-0.9-1.5-1.1-1.9v1v11.1h-1.6V156h1.6l6.5,10.4c0.3,0.5,0.9,1.5,1.1,1.9v-1V156h1.6v14.9
			H195.3z"/>
		<path d="M207.6,171.1c-3.7,0-6.2-3.2-6.2-7.7c0-4.5,2.5-7.7,6.2-7.7c3.7,0,6.2,3.2,6.2,7.7C213.8,167.9,211.3,171.1,207.6,171.1z
			 M207.5,157.2c-2.6,0-4.5,2.4-4.5,6.2s2,6.2,4.6,6.2c2.6,0,4.5-2.4,4.5-6.2S210.1,157.2,207.5,157.2z"/>
		<path d="M229.6,170.9v-10.1v-1.6c-0.1,0.6-0.6,1.7-0.9,2.5l-4,9.6l-3.9-9.6c-0.3-0.8-0.7-1.9-0.9-2.5v1.6v10.1h-1.6V156h1.9
			l3.5,8.9c0.4,0.9,0.9,2.3,1.1,2.9c0.2-0.6,0.7-2,1.1-2.9l3.6-8.9h1.8v14.9H229.6z"/>
		<path d="M236.5,170.9V156h1.7v14.9H236.5z"/>
		<path d="M243.5,170.9V156h9v1.5h-7.3v4.7h4.3v1.5h-4.3v5.7h7.7v1.5H243.5z"/>
		<path d="M262.6,170.9h-5.3V156h5.5c2.4,0,4,1.2,4,3.7c0,1.6-0.9,2.6-2.2,3c1.4,0.4,2.9,1.3,2.9,3.7
			C267.4,169.4,265.7,170.9,262.6,170.9z M262.6,157.5h-3.7v4.6h3.6c1.9,0,2.6-1.1,2.6-2.4C265.1,158.4,264.3,157.5,262.6,157.5z
			 M262.6,163.6h-3.7v5.8h3.8c2.2,0,3.1-1.1,3.1-2.8C265.8,164.7,264.6,163.6,262.6,163.6z"/>
		<path d="M271.9,170.9V156h9v1.5h-7.3v4.7h4.3v1.5h-4.3v5.7h7.7v1.5H271.9z"/>
		<path d="M290.8,157.5v13.4h-1.7v-13.4h-4.4V156h10.4v1.5H290.8z"/>
		<path d="M306.5,164.4l3.3,6.5h-1.9l-3.2-6.3h-3.5v6.3h-1.7V156h5.9c2.6,0,4.6,1.3,4.6,4.2C310,162.5,308.6,164,306.5,164.4z
			 M305.3,157.5h-4.2v5.6h4c2.2,0,3.3-0.9,3.3-2.8C308.3,158.4,307.3,157.5,305.3,157.5z"/>
		<path d="M314.7,170.9V156h1.7v14.9H314.7z"/>
		<path d="M321.6,170.9V156h9v1.5h-7.3v4.7h4.3v1.5h-4.3v5.7h7.7v1.5H321.6z"/>
		<path d="M340.8,170.9h-5.3V156h5.5c2.4,0,4,1.2,4,3.7c0,1.6-0.9,2.6-2.2,3c1.4,0.4,2.9,1.3,2.9,3.7
			C345.6,169.4,343.9,170.9,340.8,170.9z M340.8,157.5h-3.7v4.6h3.6c1.9,0,2.6-1.1,2.6-2.4C343.3,158.4,342.5,157.5,340.8,157.5z
			 M340.8,163.6h-3.7v5.8h3.8c2.2,0,3.1-1.1,3.1-2.8C344,164.7,342.7,163.6,340.8,163.6z"/>
		<path d="M350,170.9V156h9v1.5h-7.3v4.7h4.3v1.5h-4.3v5.7h7.7v1.5H350z"/>
	</g>
	<path class="st0" d="M107.8,0v76.6h-0.7c0,0-26.4-11-27.1-44.2c-0.3-17.2,8.5-31,9.6-32.4H107.8L107.8,0z M0,108.2V0h43.2
		c-0.8,1.5-8.1,18.2-8.6,43.6c-0.6,31.5,20.2,58.2,24.8,64.7H0L0,108.2z"/>
	<path d="M166.2,106c-12.7,0-20.8-10.7-20.8-25.9s8.1-25.9,20.8-25.9c8,0,13.3,3.3,16.7,9.4l-6.5,4.2c-2.5-4.1-5.1-6-10.2-6
		c-8.6,0-13.2,7.1-13.2,18.3c0,11.2,4.6,18.3,13.2,18.3c5.1,0,8.3-2.1,10.8-6.2l6.1,4.2C179.6,102.6,173.6,106,166.2,106L166.2,106z
		"/>
	<path d="M220,106c-12.1,0-18.5-8-18.5-21.8V55.1h7.4V84c0,9.5,3.9,14.5,11.2,14.5c7.7,0,11.4-4.9,11.4-14V55.1h7.4v29.2
		C238.9,98.4,232.2,106,220,106L220,106z"/>
	<polygon points="259.5,105.2 259.5,55.1 266.9,55.1 266.9,97.9 291.4,97.9 291.4,105.2 259.5,105.2 	"/>
	<polygon points="309.9,105.2 309.9,55.1 317.2,55.1 317.2,105.2 309.9,105.2 	"/>
	<path d="M368.9,105.2l-19.6-31.4c-1.2-1.9-2.9-4.9-3.7-6.2c0,1.9,0.1,8.8,0.1,11.6v26h-7.2V55.1h7.5l18.7,30.6
		c1.3,2.1,3.4,5.8,4.1,7.1c0-1.9-0.1-9-0.1-11.8V55.1h7.2v50.1H368.9L368.9,105.2z"/>
	<path d="M429.3,105.2l-4.1-11.9h-19.7l-4.1,11.9h-7.6l17.7-50.1h7.8l17.9,50.1H429.3L429.3,105.2z M419,75.1
		c-1.2-3.6-3.2-9.4-3.7-11.5c-0.6,2.1-2.3,7.9-3.6,11.6l-3.9,11.5h15.2L419,75.1L419,75.1z"/>
	<path d="M481.6,84.8l10,20.5h-8.5l-9.8-19.8h-11.1v19.8H455V55.1h21.5c8.6,0,15.8,4.7,15.8,15C492.4,78.1,488.2,83,481.6,84.8
		L481.6,84.8z M476.6,62.2h-14.3v16.1h14.3c4.9,0,8.4-2.6,8.4-8C484.9,65.1,481.6,62.2,476.6,62.2L476.6,62.2z"/>
	<polygon points="512.3,105.2 512.3,55.1 519.7,55.1 519.7,105.2 512.3,105.2 	"/>
	<path d="M573.4,105.2l-4.1-11.9h-19.7l-4.1,11.9h-7.6l17.7-50.1h7.8l17.9,50.1H573.4L573.4,105.2z M563.1,75.1
		c-1.2-3.6-3.2-9.4-3.7-11.5c-0.6,2.1-2.3,7.9-3.6,11.6l-3.9,11.5h15.2L563.1,75.1L563.1,75.1z"/>
</g>
</svg>
